G04 #@! TF.FileFunction,Copper,L1,Top,Signal*
%FSLAX46Y46*%
G04 Gerber Fmt 4.6, Leading zero omitted, Abs format (unit mm)*
G04 Created by KiCad (PCBNEW 4.0.5+dfsg1-4~bpo8+1) date Mon Aug  6 16:38:55 2018*
%MOMM*%
%LPD*%
G01*
G04 APERTURE LIST*
%ADD10C,0.100000*%
%ADD11R,0.600000X1.550000*%
%ADD12R,1.500000X1.250000*%
%ADD13R,1.250000X1.500000*%
%ADD14R,1.397000X1.397000*%
%ADD15C,1.397000*%
%ADD16R,2.032000X1.727200*%
%ADD17O,2.032000X1.727200*%
%ADD18R,1.727200X2.032000*%
%ADD19O,1.727200X2.032000*%
%ADD20R,3.200000X2.700000*%
%ADD21R,1.651000X3.048000*%
%ADD22R,6.096000X6.096000*%
%ADD23R,0.900000X0.500000*%
%ADD24R,0.500000X0.900000*%
%ADD25R,0.750000X0.800000*%
%ADD26C,1.000000*%
%ADD27C,0.381000*%
%ADD28C,1.600000*%
%ADD29C,1.000000*%
%ADD30C,1.300000*%
G04 APERTURE END LIST*
D10*
D11*
X35433000Y-40546000D03*
X36703000Y-40546000D03*
X37973000Y-40546000D03*
X39243000Y-40546000D03*
X39243000Y-35146000D03*
X37973000Y-35146000D03*
X36703000Y-35146000D03*
X35433000Y-35146000D03*
D12*
X39604000Y-58166000D03*
X37104000Y-58166000D03*
D13*
X35052000Y-60432000D03*
X35052000Y-57932000D03*
D14*
X42418000Y-60198000D03*
D15*
X42418000Y-47498000D03*
D16*
X32258000Y-35814000D03*
D17*
X32258000Y-38354000D03*
X32258000Y-40894000D03*
X32258000Y-43434000D03*
X32258000Y-45974000D03*
X32258000Y-48514000D03*
X32258000Y-51054000D03*
X32258000Y-53594000D03*
X32258000Y-56134000D03*
X32258000Y-58674000D03*
X32258000Y-61214000D03*
X32258000Y-63754000D03*
X32258000Y-66294000D03*
X32258000Y-68834000D03*
X32258000Y-71374000D03*
D16*
X47498000Y-35814000D03*
D17*
X47498000Y-38354000D03*
X47498000Y-40894000D03*
X47498000Y-43434000D03*
X47498000Y-45974000D03*
X47498000Y-48514000D03*
X47498000Y-51054000D03*
X47498000Y-53594000D03*
X47498000Y-56134000D03*
X47498000Y-58674000D03*
X47498000Y-61214000D03*
X47498000Y-63754000D03*
X47498000Y-66294000D03*
X47498000Y-68834000D03*
X47498000Y-71374000D03*
D18*
X32258000Y-30480000D03*
D19*
X34798000Y-30480000D03*
X37338000Y-30480000D03*
X39878000Y-30480000D03*
X42418000Y-30480000D03*
X44958000Y-30480000D03*
X47498000Y-30480000D03*
X50038000Y-30480000D03*
D20*
X43434000Y-63614000D03*
X43434000Y-71514000D03*
D21*
X39878000Y-63500000D03*
D22*
X37592000Y-69850000D03*
D21*
X35306000Y-63500000D03*
D11*
X41021000Y-40546000D03*
X42291000Y-40546000D03*
X43561000Y-40546000D03*
X44831000Y-40546000D03*
X44831000Y-35146000D03*
X43561000Y-35146000D03*
X42291000Y-35146000D03*
X41021000Y-35146000D03*
D23*
X35052000Y-42430000D03*
X35052000Y-43930000D03*
X39624000Y-55130000D03*
X39624000Y-56630000D03*
D24*
X38850000Y-42418000D03*
X37350000Y-42418000D03*
X39358000Y-60452000D03*
X37858000Y-60452000D03*
X41390000Y-42672000D03*
X39890000Y-42672000D03*
X43192000Y-42672000D03*
X44692000Y-42672000D03*
X34556000Y-48768000D03*
X36056000Y-48768000D03*
D23*
X38608000Y-43954000D03*
X38608000Y-45454000D03*
X40132000Y-44208000D03*
X40132000Y-45708000D03*
X44704000Y-44208000D03*
X44704000Y-45708000D03*
D25*
X35560000Y-45478000D03*
X35560000Y-46978000D03*
X37084000Y-43954000D03*
X37084000Y-45454000D03*
X41656000Y-44208000D03*
X41656000Y-45708000D03*
X43180000Y-44208000D03*
X43180000Y-45708000D03*
D26*
X40386000Y-38862000D03*
X38100000Y-38862000D03*
X43434000Y-38862000D03*
X37084000Y-55880000D03*
X37338000Y-46990000D03*
X33782000Y-39624000D03*
X41656000Y-37592000D03*
X43942000Y-36830000D03*
D27*
X39624000Y-56630000D02*
X39624000Y-58146000D01*
X39624000Y-58146000D02*
X39604000Y-58166000D01*
X39358000Y-60452000D02*
X39358000Y-62980000D01*
X39358000Y-62980000D02*
X39878000Y-63500000D01*
D28*
X39604000Y-58166000D02*
X40386000Y-58166000D01*
X40386000Y-58166000D02*
X42418000Y-60198000D01*
X42418000Y-60198000D02*
X42418000Y-62598000D01*
X42418000Y-62598000D02*
X43434000Y-63614000D01*
X39878000Y-63500000D02*
X43320000Y-63500000D01*
X43320000Y-63500000D02*
X43434000Y-63614000D01*
D29*
X41021000Y-40546000D02*
X41021000Y-39497000D01*
X41021000Y-39497000D02*
X40386000Y-38862000D01*
X35433000Y-40546000D02*
X35433000Y-39497000D01*
X37973000Y-38989000D02*
X38100000Y-38862000D01*
X37973000Y-38989000D02*
X37973000Y-40546000D01*
X36068000Y-38862000D02*
X38100000Y-38862000D01*
X35433000Y-39497000D02*
X36068000Y-38862000D01*
X43561000Y-40546000D02*
X43561000Y-38989000D01*
X43561000Y-38989000D02*
X43434000Y-38862000D01*
D28*
X37104000Y-58166000D02*
X37104000Y-55900000D01*
X37104000Y-55900000D02*
X37084000Y-55880000D01*
D27*
X37084000Y-45454000D02*
X37084000Y-46736000D01*
X37326000Y-46978000D02*
X37338000Y-46990000D01*
X37326000Y-46978000D02*
X35560000Y-46978000D01*
X37084000Y-46736000D02*
X37338000Y-46990000D01*
X43180000Y-45708000D02*
X43180000Y-46736000D01*
X43180000Y-46736000D02*
X42418000Y-47498000D01*
X41656000Y-45708000D02*
X41656000Y-46736000D01*
X41656000Y-46736000D02*
X42418000Y-47498000D01*
D28*
X37858000Y-60452000D02*
X37592000Y-60452000D01*
X37104000Y-59964000D02*
X37104000Y-58166000D01*
X37592000Y-60452000D02*
X37104000Y-59964000D01*
X35052000Y-57932000D02*
X36870000Y-57932000D01*
X36870000Y-57932000D02*
X37104000Y-58166000D01*
X32258000Y-63754000D02*
X35052000Y-63754000D01*
X35052000Y-63754000D02*
X35306000Y-63500000D01*
D30*
X35052000Y-60432000D02*
X35052000Y-63246000D01*
X35052000Y-63246000D02*
X35306000Y-63500000D01*
D27*
X35052000Y-42430000D02*
X35548000Y-42430000D01*
X35548000Y-42430000D02*
X36703000Y-41275000D01*
X36703000Y-41275000D02*
X36703000Y-40546000D01*
X32258000Y-43434000D02*
X34048000Y-43434000D01*
X34048000Y-43434000D02*
X35052000Y-42430000D01*
X35052000Y-42430000D02*
X35064000Y-42430000D01*
X39243000Y-40546000D02*
X39243000Y-38227000D01*
X33782000Y-39370000D02*
X33782000Y-39624000D01*
X36068000Y-37084000D02*
X33782000Y-39370000D01*
X38100000Y-37084000D02*
X36068000Y-37084000D01*
X39243000Y-38227000D02*
X38100000Y-37084000D01*
X38850000Y-42418000D02*
X38850000Y-41922000D01*
X39243000Y-41529000D02*
X39243000Y-40546000D01*
X38850000Y-41922000D02*
X39243000Y-41529000D01*
X38850000Y-42418000D02*
X38850000Y-42430000D01*
X42291000Y-40546000D02*
X42291000Y-38227000D01*
X42291000Y-38227000D02*
X41656000Y-37592000D01*
X41390000Y-42672000D02*
X41390000Y-42430000D01*
X42291000Y-41529000D02*
X42291000Y-40546000D01*
X41390000Y-42430000D02*
X42291000Y-41529000D01*
X44831000Y-40546000D02*
X44831000Y-37719000D01*
X44831000Y-37719000D02*
X43942000Y-36830000D01*
X43192000Y-42672000D02*
X43676000Y-42430000D01*
X43676000Y-42430000D02*
X44831000Y-41275000D01*
X44831000Y-41275000D02*
X44831000Y-40546000D01*
X39624000Y-55130000D02*
X38620000Y-55130000D01*
X34544000Y-56134000D02*
X32258000Y-56134000D01*
X36068000Y-54102000D02*
X34544000Y-56134000D01*
X38100000Y-54102000D02*
X36068000Y-54102000D01*
X38620000Y-55130000D02*
X38100000Y-54102000D01*
X40132000Y-45708000D02*
X40132000Y-48006000D01*
X45720000Y-45466000D02*
X47498000Y-43688000D01*
X45720000Y-46990000D02*
X45720000Y-45466000D01*
X43434000Y-49276000D02*
X45720000Y-46990000D01*
X41402000Y-49276000D02*
X43434000Y-49276000D01*
X40132000Y-48006000D02*
X41402000Y-49276000D01*
X47498000Y-43688000D02*
X47498000Y-43434000D01*
X38608000Y-45454000D02*
X38608000Y-47752000D01*
X41910000Y-51054000D02*
X47498000Y-51054000D01*
X38608000Y-47752000D02*
X41910000Y-51054000D01*
X36056000Y-48768000D02*
X37592000Y-48768000D01*
X37592000Y-48768000D02*
X47498000Y-58674000D01*
X44704000Y-45708000D02*
X44704000Y-45466000D01*
X44704000Y-45466000D02*
X45720000Y-44450000D01*
X45720000Y-42672000D02*
X47498000Y-40894000D01*
X45720000Y-44450000D02*
X45720000Y-42672000D01*
X44704000Y-45708000D02*
X44716000Y-45708000D01*
D29*
X34798000Y-30480000D02*
X34798000Y-34511000D01*
X34798000Y-34511000D02*
X35433000Y-35146000D01*
X35433000Y-35146000D02*
X36703000Y-35146000D01*
X39878000Y-30480000D02*
X39878000Y-33241000D01*
X39243000Y-33876000D02*
X39243000Y-35146000D01*
X39878000Y-33241000D02*
X39243000Y-33876000D01*
X39243000Y-35146000D02*
X37973000Y-35146000D01*
X44958000Y-30480000D02*
X44958000Y-30988000D01*
X44958000Y-30988000D02*
X42291000Y-33655000D01*
X42291000Y-33655000D02*
X42291000Y-35146000D01*
X42291000Y-35146000D02*
X41021000Y-35146000D01*
X50038000Y-30480000D02*
X47244000Y-33274000D01*
X45974000Y-33274000D02*
X44831000Y-34417000D01*
X47244000Y-33274000D02*
X45974000Y-33274000D01*
X44831000Y-34417000D02*
X44831000Y-35146000D01*
X44831000Y-35146000D02*
X43561000Y-35146000D01*
D28*
X37592000Y-69850000D02*
X41770000Y-69850000D01*
X41770000Y-69850000D02*
X43434000Y-71514000D01*
D27*
X34556000Y-48768000D02*
X34556000Y-46482000D01*
X34556000Y-46482000D02*
X35560000Y-45478000D01*
X35052000Y-43930000D02*
X35052000Y-44970000D01*
X35052000Y-44970000D02*
X35560000Y-45478000D01*
X37084000Y-43954000D02*
X38608000Y-43954000D01*
X38608000Y-43954000D02*
X38608000Y-43676000D01*
X38608000Y-43676000D02*
X37350000Y-42418000D01*
X40132000Y-44208000D02*
X41656000Y-44208000D01*
X41656000Y-44208000D02*
X41426000Y-44208000D01*
X41426000Y-44208000D02*
X39890000Y-42672000D01*
X44704000Y-44208000D02*
X43180000Y-44208000D01*
X43180000Y-44208000D02*
X43180000Y-44184000D01*
X43180000Y-44184000D02*
X44692000Y-42672000D01*
X44692000Y-44196000D02*
X44704000Y-44208000D01*
M02*
