M48
;DRILL file {KiCad 4.0.5+dfsg1-4~bpo8+1} date Mon Aug  6 16:38:58 2018
;FORMAT={-:-/ absolute / inch / decimal}
FMAT,2
INCH,TZ
T1C0.032
T2C0.032
T3C0.040
%
G90
G05
M72
T1
X1.33Y-1.56
X1.46Y-2.2
X1.47Y-1.85
X1.5Y-1.53
X1.59Y-1.53
X1.64Y-1.48
X1.71Y-1.53
X1.73Y-1.45
T2
X1.67Y-1.87
X1.67Y-2.37
T3
X1.27Y-1.2
X1.27Y-1.41
X1.27Y-1.51
X1.27Y-1.61
X1.27Y-1.71
X1.27Y-1.81
X1.27Y-1.91
X1.27Y-2.01
X1.27Y-2.11
X1.27Y-2.21
X1.27Y-2.31
X1.27Y-2.41
X1.27Y-2.51
X1.27Y-2.61
X1.27Y-2.71
X1.27Y-2.81
X1.37Y-1.2
X1.47Y-1.2
X1.57Y-1.2
X1.67Y-1.2
X1.77Y-1.2
X1.87Y-1.2
X1.87Y-1.41
X1.87Y-1.51
X1.87Y-1.61
X1.87Y-1.71
X1.87Y-1.81
X1.87Y-1.91
X1.87Y-2.01
X1.87Y-2.11
X1.87Y-2.21
X1.87Y-2.31
X1.87Y-2.41
X1.87Y-2.51
X1.87Y-2.61
X1.87Y-2.71
X1.87Y-2.81
X1.97Y-1.2
T0
M30
